# xmcd CD database file
#
# Track frame offsets:
#	150
#	15847
#	33445
#	49035
#	67995
#	81545
#	97107
#	108317
#	123962
#	143767
#	159012
#	175967
#
# Disc length: 2555 seconds
#
# Revision: 6
# Processed by: cddbd v1.5.2PL0 Copyright (c) Steve Scherf et al.
# Submitted via: CDex 1.79
#
DISCID=9009f90c
DTITLE=Becky Hobbs - The Boots I Came To Town In
DYEAR=1994
DGENRE=Country
TTITLE0=I Can`t Fight This Feeling
TTITLE1=Yesterday Tonight
TTITLE2=Gonna Rock You Baby
TTITLE3=That`s The Way I Feel About You
TTITLE4=Mama`s Green Eyes (And Daddy`s Wild Hair)
TTITLE5=Do It Right Now
TTITLE6=Don`t Call Me
TTITLE7=The Boots I Came To Town In
TTITLE8=Angels Among Us
TTITLE9=I Don`t Dance With Strangers
TTITLE10=Joanna
TTITLE11=Pale Moon
EXTD=YEAR: 1994
EXTT0=
EXTT1=
EXTT2=
EXTT3=
EXTT4=
EXTT5=
EXTT6=
EXTT7=
EXTT8=
EXTT9=
EXTT10=
EXTT11=
PLAYORDER=
